<svg width="1125" height="1093" viewBox="0 0 1125 1093" fill="none" xmlns="http://www.w3.org/2000/svg">
<g opacity="0.95">
<path d="M668.342 718.34L767.952 715.87L717.372 653.5L687.832 676.67L668.342 718.34Z" fill="#2E2E2E"/>
<path d="M445.52 462.54L325.99 250.49L361.57 439.45L445.52 462.54Z" fill="#828282"/>
<path d="M522.28 255.18L325.99 250.49L445.52 462.54L510.76 472.35L522.28 255.18Z" fill="#B2B2B2"/>
<path d="M578.162 396.131L522.172 257.121L510.762 472.351L578.162 396.131Z" fill="url(#paint0_linear_2101_506)"/>
<path d="M598.351 411.74L564.271 292.14L522.281 255.18L578.161 396.13L598.351 411.74Z" fill="#C6C6C6"/>
<path d="M445.521 462.541L361.571 439.451L328.271 527.191L445.521 462.541Z" fill="#A4A4A4"/>
<path d="M333.631 439.451L328.271 527.191L361.571 439.451H333.631Z" fill="#424242"/>
<path d="M534.002 601.06L361.572 556.32L261.092 626.8L449.282 650.93L534.002 601.06Z" fill="#262626"/>
<path d="M547.25 520.711L534 601.061L361.57 556.321L547.25 520.711Z" fill="url(#paint1_linear_2101_506)"/>
<path d="M478.82 429.791L547.25 520.711L361.57 556.321L478.82 429.791Z" fill="#BCBCBC"/>
<path d="M556.74 445.021L478.82 429.791L547.25 520.711L556.74 445.021Z" fill="#979797"/>
<path d="M629.26 489.87L556.74 445.02L547.25 520.71L629.26 489.87Z" fill="#AFAFAF"/>
<path d="M578.16 396.131L556.74 445.021L512.66 436.401L578.16 396.131Z" fill="#C0C0C0"/>
<path d="M629.26 428.901L578.16 396.131L556.74 445.021L629.26 428.901Z" fill="#FBFBFB"/>
<path d="M629.26 489.87V428.9L556.74 445.02L629.26 489.87Z" fill="#DEDEDE"/>
<path d="M597.432 408.49L713.992 341.82L739.782 411.74L629.262 428.9L597.432 408.49Z" fill="url(#paint2_linear_2101_506)"/>
<path d="M861.592 389.08L629.262 428.9V489.87L861.592 389.08Z" fill="#F7F7F7"/>
<path d="M629.26 562.961V489.871L547.25 520.711L534 601.061L629.26 562.961Z" fill="url(#paint3_linear_2101_506)"/>
<path d="M448.112 462.931L445.522 462.541L328.272 527.191L261.092 626.801L361.572 556.321L448.112 462.931Z" fill="#E4E4E4"/>
<path d="M449.281 650.931L440.961 802.301L513.981 740.171L534.001 601.061L449.281 650.931Z" fill="url(#paint4_linear_2101_506)"/>
<path d="M629.26 562.961L534 601.061L513.98 740.171L606.56 653.501L629.26 562.961Z" fill="url(#paint5_linear_2101_506)"/>
<path d="M703.741 642.641L629.261 562.961L606.561 653.501L703.741 642.641Z" fill="#747474"/>
<path d="M516.121 738.171L647.051 763.871L703.741 642.641L606.561 653.501L516.121 738.171Z" fill="#727272"/>
<path d="M629.262 489.871L677.732 547.511L703.742 642.641L629.262 562.961V489.871Z" fill="url(#paint6_linear_2101_506)"/>
<path d="M861.592 389.08L677.732 547.51L629.262 489.87L861.592 389.08Z" fill="#494949"/>
<path d="M861.59 389.08L754.581 510.72L677.73 547.51L861.59 389.08Z" fill="#2C2C2C"/>
<path d="M841.4 482.779L800.36 458.689L754.58 510.719L841.4 482.779Z" fill="#C8C8C8"/>
<path d="M769.66 612.509L781.29 591.469L841.4 482.779L752.331 511.799L677.73 547.509L703.74 642.639L687.831 676.669L769.66 612.509Z" fill="#353535"/>
<path d="M902.65 659.341L781.29 591.471L769.66 612.511L902.65 659.341Z" fill="#B7B7B7"/>
<path d="M349.262 850.42L478.822 853.22L574.062 749.51L516.122 738.17L440.962 802.3L349.262 850.42Z" fill="#080808"/>
<path d="M423.622 724.75L349.262 850.42L440.962 802.3L423.622 724.75Z" fill="#191919"/>
<path d="M401.611 644.82L423.621 724.75L440.961 802.3L449.281 650.93L401.611 644.82Z" fill="#101010"/>
<path d="M401.611 644.82L233.381 785.01L349.261 850.42L423.621 724.75L401.611 644.82Z" fill="#252525"/>
<path d="M261.092 626.801L372.692 668.921L401.612 644.821L261.092 626.801Z" fill="#171717"/>
<path d="M233.381 785.011L341.201 657.031L372.691 668.921L233.381 785.011Z" fill="#7F7F7F"/>
<path d="M717.371 653.5L767.951 715.87L902.651 659.34L769.661 612.51L717.371 653.5Z" fill="#696969"/>
<path d="M671.011 862.81L631.001 759.69L574.061 748.74L553.791 768.26L690.901 916.35L671.011 862.81Z" fill="#242424"/>
<path d="M688.491 862.811L681.271 715.961L668.341 716.271L647.051 763.121L630.051 759.351L690.901 916.351L688.491 862.811Z" fill="#585858"/>
</g>
<path d="M286.478 503.907L279.979 559.094" stroke="#4E4C4C" stroke-width="0.75" stroke-miterlimit="10"/>
<path d="M286.479 503.907L348.907 521.381" stroke="#4E4C4C" stroke-width="0.75" stroke-miterlimit="10"/>
<path d="M280.155 559.589L378.031 606.241" stroke="#4E4C4C" stroke-width="0.75" stroke-miterlimit="10"/>
<path d="M655.601 401.465L973.792 345.974" stroke="#4E4C4C" stroke-width="0.75" stroke-miterlimit="10"/>
<path d="M666.004 418.807L973.791 345.974" stroke="#4E4C4C" stroke-width="0.75" stroke-miterlimit="10"/>
<path d="M803.857 418.807L973.79 345.974" stroke="#4E4C4C" stroke-width="0.75" stroke-miterlimit="10"/>
<path d="M762.239 306.092L803.858 418.804" stroke="#4E4C4C" stroke-width="0.75" stroke-miterlimit="10"/>
<path d="M718.894 552.1L973.793 345.974" stroke="#4E4C4C" stroke-width="0.75" stroke-miterlimit="10"/>
<path d="M817.294 509.189L973.791 345.974" stroke="#4E4C4C" stroke-width="0.75" stroke-miterlimit="10"/>
<path d="M803.857 418.806L919.819 469.518" stroke="#4E4C4C" stroke-width="0.75" stroke-miterlimit="10"/>
<path d="M919.822 469.518L810.578 477.955" stroke="#4E4C4C" stroke-width="0.75" stroke-miterlimit="10"/>
<path d="M738.402 622.982L817.297 509.187" stroke="#4E4C4C" stroke-width="0.75" stroke-miterlimit="10"/>
<path d="M817.293 509.189L803.857 418.806" stroke="#4E4C4C" stroke-width="0.75" stroke-miterlimit="10"/>
<path d="M817.296 509.187L718.894 552.098" stroke="#4E4C4C" stroke-width="0.75" stroke-miterlimit="10"/>
<path d="M817.294 509.188L919.82 469.518" stroke="#4E4C4C" stroke-width="0.75" stroke-miterlimit="10"/>
<path d="M919.819 469.518L803.857 598.925" stroke="#4E4C4C" stroke-width="0.75" stroke-miterlimit="10"/>
<path d="M825.534 630.127L916.61 473.098" stroke="#4E4C4C" stroke-width="0.75" stroke-miterlimit="10"/>
<path d="M738.402 622.984L803.861 598.926" stroke="#4E4C4C" stroke-width="0.75" stroke-miterlimit="10"/>
<path d="M825.534 630.129L977.689 684.756" stroke="#4E4C4C" stroke-width="0.75" stroke-miterlimit="10"/>
<path d="M977.69 684.754L772.752 573.429" stroke="#4E4C4C" stroke-width="0.75" stroke-miterlimit="10"/>
<path d="M768.094 684.756L825.533 630.129" stroke="#4E4C4C" stroke-width="0.75" stroke-miterlimit="10"/>
<path d="M825.533 630.129L820.336 751.726" stroke="#4E4C4C" stroke-width="0.75" stroke-miterlimit="10"/>
<path d="M820.336 751.724L973.792 684.754" stroke="#4E4C4C" stroke-width="0.75" stroke-miterlimit="10"/>
<path d="M973.792 684.754H768.094" stroke="#4E4C4C" stroke-width="0.75" stroke-miterlimit="10"/>
<path d="M768.094 684.754L820.335 751.724" stroke="#4E4C4C" stroke-width="0.75" stroke-miterlimit="10"/>
<path d="M768.094 684.757L803.859 598.926" stroke="#4E4C4C" stroke-width="0.75" stroke-miterlimit="10"/>
<path d="M825.535 630.127L772.752 573.429" stroke="#4E4C4C" stroke-width="0.75" stroke-miterlimit="10"/>
<path d="M718.894 745.87L820.336 751.723" stroke="#4E4C4C" stroke-width="0.75" stroke-miterlimit="10"/>
<path d="M820.336 751.726L687.68 756.277" stroke="#4E4C4C" stroke-width="0.75" stroke-miterlimit="10"/>
<path d="M718.895 745.87L646.718 770.584" stroke="#4E4C4C" stroke-width="0.75" stroke-miterlimit="10"/>
<path d="M646.718 770.584L725.394 718.238" stroke="#4E4C4C" stroke-width="0.75" stroke-miterlimit="10"/>
<path d="M725.393 718.238L718.894 745.87" stroke="#4E4C4C" stroke-width="0.75" stroke-miterlimit="10"/>
<path d="M725.392 718.24L762.24 671.747" stroke="#4E4C4C" stroke-width="0.75" stroke-miterlimit="10"/>
<path d="M762.239 671.747L768.092 684.755" stroke="#4E4C4C" stroke-width="0.75" stroke-miterlimit="10"/>
<path d="M768.093 684.754L725.392 718.239" stroke="#4E4C4C" stroke-width="0.75" stroke-miterlimit="10"/>
<path d="M820.337 751.723L743.817 715.312" stroke="#4E4C4C" stroke-width="0.75" stroke-miterlimit="10"/>
<path d="M743.817 715.313L768.095 684.754" stroke="#4E4C4C" stroke-width="0.75" stroke-miterlimit="10"/>
<path d="M743.817 715.312L718.894 745.87" stroke="#4E4C4C" stroke-width="0.75" stroke-miterlimit="10"/>
<path d="M762.243 671.747L682.807 824.558" stroke="#4E4C4C" stroke-width="0.75" stroke-miterlimit="10"/>
<path d="M682.807 824.555L718.895 745.87" stroke="#4E4C4C" stroke-width="0.75" stroke-miterlimit="10"/>
<path d="M704.375 954.914L718.856 755.212" stroke="#4E4C4C" stroke-width="0.75" stroke-miterlimit="10"/>
<path d="M682.803 824.557L629.811 684.754" stroke="#4E4C4C" stroke-width="0.75" stroke-miterlimit="10"/>
<path d="M682.806 824.556L646.718 770.585" stroke="#4E4C4C" stroke-width="0.75" stroke-miterlimit="10"/>
<path d="M646.718 770.585L562.835 831.711" stroke="#4E4C4C" stroke-width="0.75" stroke-miterlimit="10"/>
<path d="M682.804 824.558L623.921 787.197" stroke="#4E4C4C" stroke-width="0.75" stroke-miterlimit="10"/>
<path d="M703.806 957.453L689.791 809.327" stroke="#4E4C4C" stroke-width="0.75" stroke-miterlimit="10"/>
<path d="M646.718 770.585L704.376 954.914" stroke="#4E4C4C" stroke-width="0.75" stroke-miterlimit="10"/>
<path d="M704.374 954.913L609.688 797.571" stroke="#4E4C4C" stroke-width="0.75" stroke-miterlimit="10"/>
<path d="M562.835 831.711L704.376 954.913" stroke="#4E4C4C" stroke-width="0.75" stroke-miterlimit="10"/>
<path d="M738.402 622.981L762.243 671.745" stroke="#4E4C4C" stroke-width="0.75" stroke-miterlimit="10"/>
<path d="M718.894 552.099L738.401 622.984" stroke="#4E4C4C" stroke-width="0.75" stroke-miterlimit="10"/>
<path d="M661.673 566.086L718.894 552.099" stroke="#4E4C4C" stroke-width="0.75" stroke-miterlimit="10"/>
<path d="M666.004 476.672L718.892 552.099" stroke="#4E4C4C" stroke-width="0.75" stroke-miterlimit="10"/>
<path d="M666.006 476.672L661.673 566.086" stroke="#4E4C4C" stroke-width="0.75" stroke-miterlimit="10"/>
<path d="M661.673 566.086L762.241 671.748" stroke="#4E4C4C" stroke-width="0.75" stroke-miterlimit="10"/>
<path d="M738.4 622.981L725.392 718.238" stroke="#4E4C4C" stroke-width="0.75" stroke-miterlimit="10"/>
<path d="M629.811 684.755L762.239 671.747" stroke="#4E4C4C" stroke-width="0.75" stroke-miterlimit="10"/>
<path d="M661.671 566.086L629.811 684.756" stroke="#4E4C4C" stroke-width="0.75" stroke-miterlimit="10"/>
<path d="M803.858 418.806L666.004 476.673" stroke="#4E4C4C" stroke-width="0.75" stroke-miterlimit="10"/>
<path d="M666.005 476.674L655.601 401.466" stroke="#4E4C4C" stroke-width="0.75" stroke-miterlimit="10"/>
<path d="M655.601 401.466L666.005 418.807" stroke="#4E4C4C" stroke-width="0.75" stroke-miterlimit="10"/>
<path d="M666.004 418.806H806.462" stroke="#4E4C4C" stroke-width="0.75" stroke-miterlimit="10"/>
<path d="M725.392 389.092L762.24 306.092" stroke="#4E4C4C" stroke-width="0.75" stroke-miterlimit="10"/>
<path d="M762.243 306.092L738.402 446.284" stroke="#4E4C4C" stroke-width="0.75" stroke-miterlimit="10"/>
<path d="M588.414 360.282L655.602 401.463" stroke="#4E4C4C" stroke-width="0.75" stroke-miterlimit="10"/>
<path d="M568.049 422.7L588.411 360.282" stroke="#4E4C4C" stroke-width="0.75" stroke-miterlimit="10"/>
<path d="M568.049 422.703L655.6 401.466" stroke="#4E4C4C" stroke-width="0.75" stroke-miterlimit="10"/>
<path d="M568.049 422.7L666.004 476.671" stroke="#4E4C4C" stroke-width="0.75" stroke-miterlimit="10"/>
<path d="M666.007 476.672L557.638 521.379" stroke="#4E4C4C" stroke-width="0.75" stroke-miterlimit="10"/>
<path d="M557.638 521.377L568.052 422.7" stroke="#4E4C4C" stroke-width="0.75" stroke-miterlimit="10"/>
<path d="M557.638 521.377L661.674 566.084" stroke="#4E4C4C" stroke-width="0.75" stroke-miterlimit="10"/>
<path d="M557.637 521.377L541.16 618.915" stroke="#4E4C4C" stroke-width="0.75" stroke-miterlimit="10"/>
<path d="M541.16 618.917L661.673 566.086" stroke="#4E4C4C" stroke-width="0.75" stroke-miterlimit="10"/>
<path d="M541.16 618.915L629.813 684.753" stroke="#4E4C4C" stroke-width="0.75" stroke-miterlimit="10"/>
<path d="M541.159 618.915L515.152 797.57" stroke="#4E4C4C" stroke-width="0.75" stroke-miterlimit="10"/>
<path d="M515.152 797.571L629.812 684.754" stroke="#4E4C4C" stroke-width="0.75" stroke-miterlimit="10"/>
<path d="M666.004 418.804L762.24 306.092" stroke="#4E4C4C" stroke-width="0.75" stroke-miterlimit="10"/>
<path d="M615.287 376.188L762.244 306.092" stroke="#4E4C4C" stroke-width="0.75" stroke-miterlimit="10"/>
<path d="M660.811 360.282L702.391 376.188" stroke="#4E4C4C" stroke-width="0.75" stroke-miterlimit="10"/>
<path d="M660.811 360.282L666.008 418.804" stroke="#4E4C4C" stroke-width="0.75" stroke-miterlimit="10"/>
<path d="M660.808 360.282L655.601 401.463" stroke="#4E4C4C" stroke-width="0.75" stroke-miterlimit="10"/>
<path d="M660.81 360.282L625.871 408.675" stroke="#4E4C4C" stroke-width="0.75" stroke-miterlimit="10"/>
<path d="M660.809 360.282L598.077 415.422" stroke="#4E4C4C" stroke-width="0.75" stroke-miterlimit="10"/>
<path d="M262.857 172.572L528.152 190.778" stroke="#4E4C4C" stroke-width="0.75" stroke-miterlimit="10"/>
<path d="M528.151 190.775L508.216 422.699" stroke="#4E4C4C" stroke-width="0.75" stroke-miterlimit="10"/>
<path d="M508.216 422.7L588.412 360.282" stroke="#4E4C4C" stroke-width="0.75" stroke-miterlimit="10"/>
<path d="M588.413 360.28L528.151 190.775" stroke="#4E4C4C" stroke-width="0.75" stroke-miterlimit="10"/>
<path d="M528.151 190.775L572.373 253.203" stroke="#4E4C4C" stroke-width="0.75" stroke-miterlimit="10"/>
<path d="M572.372 253.203L615.283 376.187" stroke="#4E4C4C" stroke-width="0.75" stroke-miterlimit="10"/>
<path d="M528.151 190.775L615.284 376.187" stroke="#4E4C4C" stroke-width="0.75" stroke-miterlimit="10"/>
<path d="M572.373 253.203L508.216 422.699" stroke="#4E4C4C" stroke-width="0.75" stroke-miterlimit="10"/>
<path d="M572.371 253.203L565.007 378.496" stroke="#4E4C4C" stroke-width="0.75" stroke-miterlimit="10"/>
<path d="M262.857 172.572L508.217 422.701" stroke="#4E4C4C" stroke-width="0.75" stroke-miterlimit="10"/>
<path d="M262.857 172.572L469.202 341.137" stroke="#4E4C4C" stroke-width="0.75" stroke-miterlimit="10"/>
<path d="M469.201 341.134L528.151 190.775" stroke="#4E4C4C" stroke-width="0.75" stroke-miterlimit="10"/>
<path d="M262.857 172.572L427.583 449.687" stroke="#4E4C4C" stroke-width="0.75" stroke-miterlimit="10"/>
<path d="M427.583 449.686L458.797 396.256" stroke="#4E4C4C" stroke-width="0.75" stroke-miterlimit="10"/>
<path d="M458.797 396.256L557.636 521.378" stroke="#4E4C4C" stroke-width="0.75" stroke-miterlimit="10"/>
<path d="M458.797 396.256L568.05 422.7" stroke="#4E4C4C" stroke-width="0.75" stroke-miterlimit="10"/>
<path d="M568.05 422.7H508.216" stroke="#4E4C4C" stroke-width="0.75" stroke-miterlimit="10"/>
<path d="M508.216 422.7L458.797 396.256" stroke="#4E4C4C" stroke-width="0.75" stroke-miterlimit="10"/>
<path d="M427.583 449.685L508.217 422.7" stroke="#4E4C4C" stroke-width="0.75" stroke-miterlimit="10"/>
<path d="M279.979 559.09L557.635 521.377" stroke="#4E4C4C" stroke-width="0.75" stroke-miterlimit="10"/>
<path d="M541.158 618.916L279.979 559.092" stroke="#4E4C4C" stroke-width="0.75" stroke-miterlimit="10"/>
<path d="M279.979 559.091L458.796 396.256" stroke="#4E4C4C" stroke-width="0.75" stroke-miterlimit="10"/>
<path d="M382.716 493.576L427.584 449.687" stroke="#4E4C4C" stroke-width="0.75" stroke-miterlimit="10"/>
<path d="M382.716 493.575L458.798 396.256" stroke="#4E4C4C" stroke-width="0.75" stroke-miterlimit="10"/>
<path d="M323.547 422.7L427.584 449.685" stroke="#4E4C4C" stroke-width="0.75" stroke-miterlimit="10"/>
<path d="M262.857 172.572L323.546 422.701" stroke="#4E4C4C" stroke-width="0.75" stroke-miterlimit="10"/>
<path d="M323.547 422.7L348.908 521.377" stroke="#4E4C4C" stroke-width="0.75" stroke-miterlimit="10"/>
<path d="M293.194 427.574L323.544 422.7" stroke="#4E4C4C" stroke-width="0.75" stroke-miterlimit="10"/>
<path d="M323.547 422.7L286.479 505.281" stroke="#4E4C4C" stroke-width="0.75" stroke-miterlimit="10"/>
<path d="M286.479 505.284L293.197 427.577" stroke="#4E4C4C" stroke-width="0.75" stroke-miterlimit="10"/>
<path d="M293.194 427.577L348.904 521.38" stroke="#4E4C4C" stroke-width="0.75" stroke-miterlimit="10"/>
<path d="M348.905 521.378L382.713 493.575" stroke="#4E4C4C" stroke-width="0.75" stroke-miterlimit="10"/>
<path d="M469.201 341.134L572.373 253.203" stroke="#4E4C4C" stroke-width="0.75" stroke-miterlimit="10"/>
<path d="M625.871 408.677L760.884 306.74" stroke="#4E4C4C" stroke-width="0.75" stroke-miterlimit="10"/>
<path d="M702.391 376.191L725.395 389.094" stroke="#4E4C4C" stroke-width="0.75" stroke-miterlimit="10"/>
<path d="M515.152 797.571L646.716 770.585" stroke="#4E4C4C" stroke-width="0.75" stroke-miterlimit="10"/>
<path d="M975.418 346.95C975.418 348.926 973.812 350.523 971.845 350.523C969.878 350.523 968.272 348.917 968.272 346.95C968.272 344.983 969.869 343.377 971.845 343.377C973.822 343.377 975.418 344.983 975.418 346.95Z" fill="#333333"/>
<path d="M807.433 418.809C807.433 420.785 805.827 422.381 803.86 422.381C801.893 422.381 800.287 420.775 800.287 418.809C800.287 416.842 801.893 415.236 803.86 415.236C805.827 415.236 807.433 416.832 807.433 418.809Z" fill="#333333"/>
<path d="M923.395 469.518C923.395 471.494 921.789 473.091 919.822 473.091C917.856 473.091 916.24 471.485 916.24 469.518C916.24 467.551 917.846 465.945 919.822 465.945C921.799 465.945 923.395 467.551 923.395 469.518Z" fill="#333333"/>
<path d="M776.333 573.432C776.333 575.408 774.727 577.004 772.76 577.004C770.793 577.004 769.188 575.399 769.188 573.432C769.188 571.465 770.793 569.859 772.76 569.859C774.727 569.859 776.333 571.465 776.333 573.432Z" fill="#333333"/>
<path d="M741.974 622.981C741.974 624.957 740.368 626.554 738.401 626.554C736.434 626.554 734.828 624.948 734.828 622.981C734.828 621.014 736.434 619.408 738.401 619.408C740.368 619.408 741.974 621.014 741.974 622.981Z" fill="#333333"/>
<path d="M807.433 598.924C807.433 600.9 805.827 602.497 803.86 602.497C801.893 602.497 800.287 600.891 800.287 598.924C800.287 596.957 801.893 595.351 803.86 595.351C805.827 595.351 807.433 596.957 807.433 598.924Z" fill="#333333"/>
<path d="M842.114 608.786C842.114 610.762 840.518 612.359 838.541 612.359C836.565 612.359 834.969 610.753 834.969 608.786C834.969 606.819 836.575 605.213 838.541 605.213C840.508 605.213 842.114 606.819 842.114 608.786Z" fill="#333333"/>
<path d="M813.286 592.502C813.286 594.478 811.68 596.074 809.713 596.074C807.746 596.074 806.141 594.469 806.141 592.502C806.141 590.535 807.746 588.929 809.713 588.929C811.68 588.929 813.286 590.535 813.286 592.502Z" fill="#333333"/>
<path d="M825.533 632.665C827.506 632.665 829.105 631.065 829.105 629.092C829.105 627.119 827.506 625.52 825.533 625.52C823.56 625.52 821.96 627.119 821.96 629.092C821.96 631.065 823.56 632.665 825.533 632.665Z" fill="#333333"/>
<path d="M979.102 684.753C979.102 686.729 977.497 688.326 975.53 688.326C973.563 688.326 971.957 686.72 971.957 684.753C971.957 682.786 973.553 681.18 975.53 681.18C977.506 681.18 979.102 682.786 979.102 684.753Z" fill="#333333"/>
<path d="M823.369 750.101C823.369 752.077 821.763 753.674 819.796 753.674C817.829 753.674 816.224 752.068 816.224 750.101C816.224 748.134 817.82 746.528 819.796 746.528C821.773 746.528 823.369 748.134 823.369 750.101Z" fill="#333333"/>
<path d="M650.291 770.586C650.291 772.562 648.685 774.158 646.718 774.158C644.751 774.158 643.146 772.553 643.146 770.586C643.146 768.619 644.742 767.013 646.718 767.013C648.695 767.013 650.291 768.619 650.291 770.586Z" fill="#333333"/>
<path d="M686.38 824.561C686.38 826.537 684.774 828.133 682.807 828.133C680.84 828.133 679.234 826.527 679.234 824.561C679.234 822.594 680.831 820.988 682.807 820.988C684.784 820.988 686.38 822.594 686.38 824.561Z" fill="#333333"/>
<path d="M707.908 953.347C708.288 955.77 706.226 957.823 703.803 957.452C702.302 957.215 701.066 955.989 700.838 954.478C700.468 952.065 702.52 950.022 704.934 950.383C706.445 950.611 707.67 951.837 707.908 953.347Z" fill="#333333"/>
<path d="M722.464 756.276C722.464 758.253 720.858 759.849 718.891 759.849C716.924 759.849 715.318 758.243 715.318 756.276C715.318 754.309 716.915 752.704 718.891 752.704C720.868 752.704 722.464 754.309 722.464 756.276Z" fill="#333333"/>
<path d="M722.431 746.524C722.431 748.501 720.825 750.097 718.858 750.097C716.891 750.097 715.285 748.491 715.285 746.524C715.285 744.557 716.881 742.952 718.858 742.952C720.834 742.952 722.431 744.557 722.431 746.524Z" fill="#333333"/>
<path d="M772.75 684.753C772.75 686.729 771.144 688.326 769.177 688.326C767.21 688.326 765.604 686.72 765.604 684.753C765.604 682.786 767.201 681.18 769.177 681.18C771.154 681.18 772.75 682.786 772.75 684.753Z" fill="#333333"/>
<path d="M762.137 674.018C764.11 674.018 765.71 672.418 765.71 670.445C765.71 668.472 764.11 666.873 762.137 666.873C760.164 666.873 758.564 668.472 758.564 670.445C758.564 672.418 760.164 674.018 762.137 674.018Z" fill="#333333"/>
<path d="M633.384 684.753C633.384 686.729 631.778 688.326 629.811 688.326C627.844 688.326 626.238 686.72 626.238 684.753C626.238 682.786 627.835 681.18 629.811 681.18C631.787 681.18 633.384 682.786 633.384 684.753Z" fill="#333333"/>
<path d="M665.246 566.086C665.246 568.063 663.64 569.659 661.673 569.659C659.706 569.659 658.101 568.053 658.101 566.086C658.101 564.119 659.697 562.513 661.673 562.513C663.65 562.513 665.246 564.119 665.246 566.086Z" fill="#333333"/>
<path d="M722.464 551.614C722.464 553.591 720.858 555.187 718.891 555.187C716.924 555.187 715.318 553.581 715.318 551.614C715.318 549.647 716.915 548.042 718.891 548.042C720.868 548.042 722.464 549.638 722.464 551.614Z" fill="#333333"/>
<path d="M668.829 476.671C668.829 478.647 667.223 480.244 665.256 480.244C663.289 480.244 661.684 478.638 661.684 476.671C661.684 474.704 663.28 473.098 665.256 473.098C667.233 473.098 668.829 474.704 668.829 476.671Z" fill="#333333"/>
<path d="M738.401 449.858C740.374 449.858 741.974 448.259 741.974 446.286C741.974 444.312 740.374 442.713 738.401 442.713C736.428 442.713 734.828 444.312 734.828 446.286C734.828 448.259 736.428 449.858 738.401 449.858Z" fill="#333333"/>
<path d="M669.587 418.809C669.587 420.785 667.981 422.381 666.014 422.381C664.047 422.381 662.441 420.775 662.441 418.809C662.441 416.842 664.038 415.236 666.014 415.236C667.991 415.236 669.587 416.832 669.587 418.809Z" fill="#333333"/>
<path d="M664.384 360.284C664.384 362.261 662.778 363.857 660.811 363.857C658.844 363.857 657.238 362.251 657.238 360.284C657.238 358.317 658.835 356.711 660.811 356.711C662.787 356.711 664.384 358.317 664.384 360.284Z" fill="#333333"/>
<path d="M764.458 306.739C764.458 308.715 762.852 310.311 760.885 310.311C758.918 310.311 757.312 308.706 757.312 306.739C757.312 304.772 758.909 303.166 760.885 303.166C762.862 303.166 764.458 304.762 764.458 306.739Z" fill="#333333"/>
<path d="M568.047 426.275C570.021 426.275 571.62 424.675 571.62 422.702C571.62 420.729 570.021 419.129 568.047 419.129C566.074 419.129 564.475 420.729 564.475 422.702C564.475 424.675 566.074 426.275 568.047 426.275Z" fill="#333333"/>
<path d="M591.982 360.284C591.982 362.261 590.377 363.857 588.41 363.857C586.443 363.857 584.837 362.251 584.837 360.284C584.837 358.317 586.433 356.711 588.41 356.711C590.386 356.711 591.982 358.317 591.982 360.284Z" fill="#333333"/>
<path d="M575.947 253.206C575.947 255.182 574.341 256.778 572.374 256.778C570.408 256.778 568.802 255.182 568.802 253.206C568.802 251.229 570.398 249.633 572.374 249.633C574.351 249.633 575.947 251.239 575.947 253.206Z" fill="#333333"/>
<path d="M531.736 190.78C531.736 192.756 530.13 194.352 528.164 194.352C526.197 194.352 524.591 192.746 524.591 190.78C524.591 188.813 526.187 187.207 528.164 187.207C530.14 187.207 531.736 188.813 531.736 190.78Z" fill="#333333"/>
<path d="M266.431 172.573C266.431 174.549 264.825 176.145 262.858 176.145C260.891 176.145 259.285 174.54 259.285 172.573C259.285 170.606 260.881 169 262.858 169C264.834 169 266.431 170.606 266.431 172.573Z" fill="#333333"/>
<path d="M293.197 431.146C295.17 431.146 296.769 429.546 296.769 427.573C296.769 425.6 295.17 424 293.197 424C291.224 424 289.624 425.6 289.624 427.573C289.624 429.546 291.224 431.146 293.197 431.146Z" fill="#333333"/>
<path d="M327.118 422.975C327.118 424.951 325.512 426.548 323.545 426.548C321.578 426.548 319.973 424.942 319.973 422.975C319.973 421.008 321.569 419.402 323.545 419.402C325.522 419.402 327.118 421.008 327.118 422.975Z" fill="#333333"/>
<path d="M462.37 396.257C462.37 398.233 460.764 399.829 458.797 399.829C456.83 399.829 455.225 398.233 455.225 396.257C455.225 394.28 456.821 392.684 458.797 392.684C460.774 392.684 462.37 394.29 462.37 396.257Z" fill="#333333"/>
<path d="M290.052 503.901C290.052 505.877 288.446 507.474 286.479 507.474C284.512 507.474 282.906 505.868 282.906 503.901C282.906 501.934 284.503 500.328 286.479 500.328C288.455 500.328 290.052 501.934 290.052 503.901Z" fill="#333333"/>
<path d="M352.48 521.377C352.48 523.354 350.875 524.95 348.908 524.95C346.941 524.95 345.335 523.344 345.335 521.377C345.335 519.411 346.931 517.805 348.908 517.805C350.884 517.805 352.48 519.411 352.48 521.377Z" fill="#333333"/>
<path d="M561.208 521.377C561.208 523.354 559.602 524.95 557.635 524.95C555.668 524.95 554.062 523.344 554.062 521.377C554.062 519.411 555.659 517.805 557.635 517.805C559.612 517.805 561.208 519.411 561.208 521.377Z" fill="#333333"/>
<path d="M283.552 559.094C283.552 561.07 281.946 562.667 279.979 562.667C278.012 562.667 276.406 561.07 276.406 559.094C276.406 557.118 278.003 555.521 279.979 555.521C281.955 555.521 283.552 557.127 283.552 559.094Z" fill="#333333"/>
<path d="M283.552 559.094C283.552 561.07 281.946 562.667 279.979 562.667C278.012 562.667 276.406 561.07 276.406 559.094C276.406 557.118 278.003 555.521 279.979 555.521C281.955 555.521 283.552 557.127 283.552 559.094Z" fill="#333333"/>
<path d="M544.733 618.917C544.733 620.893 543.128 622.49 541.161 622.49C539.194 622.49 537.588 620.884 537.588 618.917C537.588 616.95 539.184 615.344 541.161 615.344C543.137 615.344 544.733 616.941 544.733 618.917Z" fill="#333333"/>
<path d="M472.772 341.136C472.772 343.112 471.167 344.709 469.2 344.709C467.233 344.709 465.627 343.103 465.627 341.136C465.627 339.169 467.223 337.563 469.2 337.563C471.176 337.563 472.772 339.16 472.772 341.136Z" fill="#333333"/>
<path d="M820.877 509.189C820.877 511.166 819.271 512.762 817.304 512.762C815.337 512.762 813.731 511.156 813.731 509.189C813.731 507.223 815.337 505.617 817.304 505.617C819.271 505.617 820.877 507.223 820.877 509.189Z" fill="#333333"/>
<path d="M817.297 476.671C817.297 478.647 815.691 480.244 813.724 480.244C811.757 480.244 810.151 478.638 810.151 476.671C810.151 474.704 811.757 473.098 813.724 473.098C815.691 473.098 817.297 474.704 817.297 476.671Z" fill="#333333"/>
<path d="M562.833 831.711L516.663 797.571" stroke="#4E4C4C" stroke-width="0.75" stroke-miterlimit="10"/>
<path d="M190 802L462 931" stroke="#4E4C4C" stroke-width="0.75" stroke-miterlimit="10"/>
<path d="M461.743 931.464L590.475 657.4" stroke="#4E4C4C" stroke-width="0.75" stroke-miterlimit="10"/>
<path d="M625.139 769.853L461.743 931.462" stroke="#4E4C4C" stroke-width="0.75" stroke-miterlimit="10"/>
<path d="M461.743 931.464L542.32 883.327" stroke="#4E4C4C" stroke-width="0.75" stroke-miterlimit="10"/>
<path d="M542.318 883.324L660.133 765.652" stroke="#4E4C4C" stroke-width="0.75" stroke-miterlimit="10"/>
<path d="M461.743 931.461L660.134 765.652" stroke="#4E4C4C" stroke-width="0.75" stroke-miterlimit="10"/>
<path d="M542.318 883.327L590.474 657.4" stroke="#4E4C4C" stroke-width="0.75" stroke-miterlimit="10"/>
<path d="M542.318 883.327L615.018 737.035" stroke="#4E4C4C" stroke-width="0.75" stroke-miterlimit="10"/>
<path d="M189 802L454 701" stroke="#4E4C4C" stroke-width="0.75" stroke-miterlimit="10"/>
<path d="M190 802L555 524" stroke="#4E4C4C" stroke-width="0.75" stroke-miterlimit="10"/>
<path d="M189 802L379 606" stroke="#4E4C4C" stroke-width="0.75" stroke-miterlimit="10"/>
<path d="M517 801L542 883" stroke="#4E4C4C" stroke-width="0.75" stroke-miterlimit="10"/>
<path d="M465.951 929.849C465.951 931.825 464.345 933.422 462.378 933.422C460.411 933.422 458.806 931.816 458.806 929.849C458.806 927.882 460.402 926.276 462.378 926.276C464.355 926.276 465.951 927.882 465.951 929.849Z" fill="#333333"/>
<path d="M199 631L291 498" stroke="#4E4C4C" stroke-width="0.75" stroke-miterlimit="10"/>
<path d="M376.283 606L198 631" stroke="#4E4C4C" stroke-width="0.75" stroke-miterlimit="10"/>
<path d="M199 631L350 523" stroke="#4E4C4C" stroke-width="0.75" stroke-miterlimit="10"/>
<path d="M371 678L198 631" stroke="#4E4C4C" stroke-width="0.75" stroke-miterlimit="10"/>
<path d="M545.899 883.326C545.899 885.302 544.294 886.899 542.327 886.899C540.36 886.899 538.754 885.293 538.754 883.326C538.754 881.359 540.35 879.753 542.327 879.753C544.303 879.753 545.899 881.359 545.899 883.326Z" fill="#333333"/>
<path d="M190 802L542 880" stroke="#4E4C4C" stroke-width="0.75" stroke-miterlimit="10"/>
<path d="M347.661 882.398L379.01 606.188" stroke="#4E4C4C" stroke-width="0.75" stroke-miterlimit="10"/>
<path d="M436.6 670.389L347.861 882.377" stroke="#4E4C4C" stroke-width="0.75" stroke-miterlimit="10"/>
<path d="M347.861 882.376L516.663 797.571" stroke="#4E4C4C" stroke-width="0.75" stroke-miterlimit="10"/>
<path d="M347.861 882.375L454.464 701.496" stroke="#4E4C4C" stroke-width="0.75" stroke-miterlimit="10"/>
<path d="M351.121 879.281C351.881 881.105 351.016 883.196 349.192 883.956C347.368 884.716 345.277 883.851 344.517 882.027C343.757 880.202 344.622 878.112 346.446 877.352C348.27 876.592 350.361 877.456 351.121 879.281Z" fill="#333333"/>
<path d="M520.247 797.569C520.247 799.545 518.641 801.142 516.674 801.142C514.707 801.142 513.102 799.536 513.102 797.569C513.102 795.602 514.698 793.996 516.674 793.996C518.651 793.996 520.247 795.602 520.247 797.569Z" fill="#333333"/>
<path d="M202.145 630.573C202.145 632.549 200.54 634.145 198.573 634.145C196.606 634.145 195 632.549 195 630.573C195 628.596 196.596 627 198.573 627C200.549 627 202.145 628.606 202.145 630.573Z" fill="#333333"/>
<path d="M194.145 801.573C194.145 803.549 192.54 805.145 190.573 805.145C188.606 805.145 187 803.549 187 801.573C187 799.596 188.596 798 190.573 798C192.549 798 194.145 799.606 194.145 801.573Z" fill="#333333"/>
<path d="M379.194 609.946C381.167 609.946 382.767 608.347 382.767 606.374C382.767 604.4 381.167 602.801 379.194 602.801C377.221 602.801 375.621 604.4 375.621 606.374C375.621 608.347 377.221 609.946 379.194 609.946Z" fill="#333333"/>
<path d="M369.713 681.076C371.687 681.076 373.286 679.477 373.286 677.504C373.286 675.53 371.687 673.931 369.713 673.931C367.74 673.931 366.141 675.53 366.141 677.504C366.141 679.477 367.74 681.076 369.713 681.076Z" fill="#333333"/>
<defs>
<linearGradient id="paint0_linear_2101_506" x1="468.562" y1="419.741" x2="514.012" y2="367.891" gradientUnits="userSpaceOnUse">
<stop stop-color="#717171"/>
<stop offset="1" stop-color="#9C9C9C"/>
</linearGradient>
<linearGradient id="paint1_linear_2101_506" x1="361.57" y1="560.881" x2="547.25" y2="560.881" gradientUnits="userSpaceOnUse">
<stop stop-color="#9C9C9C"/>
<stop offset="1" stop-color="#717171"/>
</linearGradient>
<linearGradient id="paint2_linear_2101_506" x1="597.432" y1="385.36" x2="671.832" y2="385.36" gradientUnits="userSpaceOnUse">
<stop stop-color="#717171"/>
<stop offset="1" stop-color="#9C9C9C"/>
</linearGradient>
<linearGradient id="paint3_linear_2101_506" x1="534" y1="545.471" x2="629.26" y2="545.471" gradientUnits="userSpaceOnUse">
<stop stop-color="#717171"/>
<stop offset="0.19" stop-color="#797979"/>
<stop offset="1" stop-color="#9C9C9C"/>
</linearGradient>
<linearGradient id="paint4_linear_2101_506" x1="454.941" y1="647.531" x2="519.561" y2="755.071" gradientUnits="userSpaceOnUse">
<stop stop-color="#4D4D4D"/>
<stop offset="0.28" stop-color="#6D6D6D"/>
<stop offset="0.55" stop-color="#878787"/>
<stop offset="0.8" stop-color="#969696"/>
<stop offset="1" stop-color="#9C9C9C"/>
</linearGradient>
<linearGradient id="paint5_linear_2101_506" x1="539.34" y1="597.851" x2="595.44" y2="691.221" gradientUnits="userSpaceOnUse">
<stop stop-color="#717171"/>
<stop offset="0.17" stop-color="#7A7A7A"/>
<stop offset="0.69" stop-color="#939393"/>
<stop offset="1" stop-color="#9C9C9C"/>
</linearGradient>
<linearGradient id="paint6_linear_2101_506" x1="629.262" y1="566.251" x2="703.742" y2="566.251" gradientUnits="userSpaceOnUse">
<stop stop-color="#717171"/>
<stop offset="0.17" stop-color="#7A7A7A"/>
<stop offset="0.69" stop-color="#939393"/>
<stop offset="1" stop-color="#9C9C9C"/>
</linearGradient>
</defs>
</svg>
